<svg xmlns="http://www.w3.org/2000/svg" viewBox="0 0 64.000 60.976" fill="none" stroke="currentColor" stroke-width="0.6" stroke-linecap="round" stroke-linejoin="round"><g transform="translate(0.000,0.000) scale(0.089762,0.089408)"><path d="M713 336 C712 334 712 331 710 330 C625 249 625 249 625 249 C643 134 643 134 643 134 C643 132 643 129 641 128 C640 126 638 125 636 124 C520 109 520 109 520 109 C466 5 466 5 466 5 C465 3 464 2 461 1 C459 0 457 0 455 2 C352 57 352 57 352 57 C248 5 248 5 248 5 C246 4 243 4 241 4 C239 5 238 6 237 8 C186 114 186 114 186 114 C71 133 71 133 71 133 C69 133 67 134 65 136 C64 138 64 140 64 143 C85 257 85 257 85 257 C3 341 3 341 3 341 C1 342 0 344 0 347 C1 349 1 351 3 352 C87 433 87 433 87 433 C70 549 70 549 70 549 C70 551 70 553 72 555 C73 557 75 558 77 558 C193 574 193 574 193 574 C247 677 247 677 247 677 C248 679 249 681 252 681 C252 682 253 682 254 682 C255 682 257 681 258 681 C361 625 361 625 361 625 C465 678 465 678 465 678 C467 679 469 679 472 678 C474 677 475 676 476 674 C527 569 527 569 527 569 C642 549 642 549 642 549 C644 549 646 548 648 546 C649 544 649 542 649 540 C628 425 628 425 628 425 C710 342 710 342 710 342 C712 340 713 338 713 336 Z M613 416 C611 418 611 421 611 424 C631 535 631 535 631 535 C520 553 520 553 520 553 C517 553 515 555 514 558 C465 659 465 659 465 659 C364 609 364 609 364 609 C362 607 359 608 357 609 C257 662 257 662 257 662 C206 562 206 562 206 562 C204 560 202 558 199 558 C88 543 88 543 88 543 C104 431 104 431 104 431 C105 429 104 426 102 424 C20 346 20 346 20 346 C100 266 100 266 100 266 C102 264 102 261 102 259 C82 148 82 148 82 148 C193 129 193 129 193 129 C196 129 198 127 199 125 C248 23 248 23 248 23 C349 74 349 74 349 74 C351 75 354 75 356 74 C456 20 456 20 456 20 C507 120 507 120 507 120 C509 122 511 124 514 124 C625 140 625 140 625 140 C609 251 609 251 609 251 C608 254 609 256 611 258 C693 336 693 336 693 336 L613 416 Z M518 451 C520 453 521 457 521 460 C521 463 520 466 518 468 C516 470 513 471 510 471 C506 471 504 470 501 468 C499 466 498 463 498 460 C498 457 499 453 501 451 C506 447 513 447 518 451 Z M483 488 C487 493 486 500 481 504 C481 504 481 504 481 504 C479 506 476 507 474 507 C470 507 467 505 465 502 C461 497 462 490 467 486 C472 482 479 483 483 488 Z M294 525 C292 529 287 532 283 532 C281 532 280 532 278 531 C272 529 270 522 272 516 C275 510 281 507 287 509 C293 512 296 519 294 525 Z M393 532 C394 538 390 544 383 545 C383 545 382 545 382 545 C376 545 371 540 370 535 C369 528 374 522 380 522 C387 521 392 525 393 532 Z M246 486 C251 490 252 497 249 502 C246 505 243 507 239 507 C237 507 234 506 232 504 C227 501 226 493 230 488 C234 483 241 482 246 486 Z M343 535 C342 540 337 545 331 545 C331 545 330 545 330 545 C324 544 319 538 320 532 C321 525 326 521 333 522 C339 522 344 528 343 535 Z M441 516 C444 522 441 528 435 531 C433 531 432 532 430 532 C426 532 421 529 420 524 C417 519 420 512 426 509 C432 507 439 510 441 516 Z M212 451 C214 453 215 456 215 460 C215 463 214 466 212 468 C209 470 207 471 203 471 C200 471 197 470 195 468 C193 466 192 463 192 460 C192 456 193 453 195 451 C200 447 207 447 212 451 Z M195 231 C193 229 192 226 192 223 C192 220 193 217 195 215 C199 210 207 210 212 215 C214 217 215 220 215 223 C215 226 214 229 212 231 C209 233 207 234 203 234 C200 234 197 233 195 231 Z M320 151 C319 144 323 139 330 138 C336 137 342 141 343 148 C344 154 339 160 333 161 C332 161 332 161 331 161 C326 161 320 157 320 151 Z M419 158 C422 152 429 149 435 151 C441 154 443 161 441 167 C439 171 435 174 430 174 C429 174 427 174 426 173 C420 170 417 164 419 158 Z M272 167 C269 161 272 154 278 151 C284 149 291 152 293 158 C296 164 293 170 287 173 C287 173 287 173 287 173 C286 174 284 174 283 174 C278 174 274 171 272 167 Z M230 194 C226 189 227 182 232 178 C237 174 244 175 248 180 C252 185 251 193 246 196 C244 198 242 199 239 199 C235 199 232 197 230 194 Z M370 148 C371 141 377 137 383 138 C389 139 394 144 393 151 C392 157 387 161 382 161 C381 161 381 161 380 161 C374 160 369 154 370 148 Z M467 196 C462 193 461 185 464 180 C468 175 476 174 481 178 C486 182 487 189 483 194 C481 197 477 199 474 199 C471 199 469 198 467 196 Z M501 231 C499 229 498 226 498 223 C498 220 499 217 501 215 C506 210 513 210 518 215 C520 217 521 220 521 223 C521 226 520 229 518 231 C516 233 513 234 510 234 C506 234 504 233 501 231 Z M257 349 C259 353 261 358 261 364 C261 369 259 374 256 379 C253 384 248 388 243 391 C237 393 230 395 223 395 C213 395 205 393 199 391 C193 388 188 384 184 378 C180 373 178 367 178 360 C191 359 191 359 191 359 C192 364 193 368 196 371 C198 375 201 377 206 379 C211 381 216 383 222 383 C227 383 232 382 236 380 C240 379 243 376 245 374 C247 371 248 368 248 365 C248 362 247 359 245 356 C243 354 240 352 235 350 C233 349 227 347 217 345 C207 343 201 341 197 339 C192 336 188 333 186 329 C183 325 182 321 182 316 C182 311 184 306 187 301 C190 297 194 293 200 291 C205 289 212 288 219 288 C226 288 233 289 239 291 C245 294 250 297 253 302 C256 307 258 312 258 319 C245 320 245 320 245 320 C244 313 242 308 237 305 C233 301 227 300 219 300 C211 300 205 301 201 304 C197 307 195 311 195 315 C195 319 197 322 200 324 C202 327 209 329 220 332 C231 334 239 337 243 338 C249 341 254 345 257 349 Z M308 289 C268 393 268 393 268 393 C283 393 283 393 283 393 C294 362 294 362 294 362 C338 362 338 362 338 362 C350 393 350 393 350 393 C365 393 365 393 365 393 C323 289 323 289 323 289 L308 289 Z M298 350 C310 320 310 320 310 320 C312 313 314 307 315 300 C317 306 319 313 323 322 C333 350 333 350 333 350 L298 350 Z M390 289 C390 381 390 381 390 381 C441 381 441 381 441 381 C441 393 441 393 441 393 C376 393 376 393 376 393 C376 289 376 289 376 289 L390 289 Z M471 381 C535 381 535 381 535 381 C535 393 535 393 535 393 C457 393 457 393 457 393 C457 289 457 289 457 289 C532 289 532 289 532 289 C532 302 532 302 532 302 C471 302 471 302 471 302 C471 333 471 333 471 333 C528 333 528 333 528 333 C528 345 528 345 528 345 C471 345 471 345 471 345 L471 381 Z"/></g></svg>