<svg xmlns="http://www.w3.org/2000/svg" viewBox="0 0 52.364 64.000" fill="none" stroke="currentColor" stroke-width="0.6" stroke-linecap="round" stroke-linejoin="round"><g transform="translate(0.000,0.000) scale(0.130258,0.130346)"><path d="M392 487 C392 487 393 486 393 486 C393 483 402 419 380 389 C370 375 358 368 347 363 C347 148 347 148 347 148 C347 66 281 0 199 0 C118 0 52 66 52 148 C52 364 52 364 52 364 C42 369 32 377 22 389 C0 419 9 483 10 486 C10 489 13 491 15 491 C387 491 387 491 387 491 C387 491 387 491 387 491 C387 491 387 491 387 491 C388 491 388 491 389 491 C389 491 389 490 389 490 C390 490 390 490 391 489 C391 489 391 489 391 489 C391 489 392 488 392 488 C392 487 392 487 392 487 Z M63 148 C63 72 124 11 199 11 C275 11 336 72 336 148 C336 358 336 358 336 358 C330 357 325 356 325 356 C324 356 278 351 261 336 C242 318 243 299 243 297 C243 286 243 286 243 286 C286 265 317 215 317 156 C317 151 317 151 317 151 C317 149 316 147 315 146 C313 145 311 145 309 145 C303 148 294 149 284 149 C225 149 135 106 134 105 C133 105 132 105 131 105 C106 105 85 126 85 151 C85 156 85 156 85 156 C85 215 116 265 159 286 C159 298 159 298 159 298 C159 299 160 318 141 335 C132 344 115 349 100 352 C100 352 100 352 100 352 C100 352 100 352 100 352 C99 352 98 352 97 353 C86 355 78 356 77 356 C77 356 71 357 63 360 L63 148 Z M170 298 C170 290 170 290 170 290 C180 293 191 295 201 295 C212 295 222 293 232 290 C232 297 232 297 232 297 C232 298 230 322 254 344 C264 353 281 359 297 363 C295 379 286 393 269 405 C251 418 227 425 201 425 C201 425 201 425 201 425 C151 425 109 397 106 363 C121 359 139 353 149 344 C173 322 170 298 170 298 Z M201 284 C144 284 97 226 97 156 C97 151 97 151 97 151 C97 132 112 117 130 116 C142 122 226 160 284 160 C292 160 299 160 306 158 C305 228 258 284 201 284 Z M32 396 C51 370 78 368 78 368 C79 368 86 367 95 365 C100 405 145 436 201 436 C201 436 201 436 201 436 C230 436 256 429 276 414 C295 401 306 384 308 365 C317 367 323 368 324 368 C324 368 351 370 371 396 C387 418 383 464 382 480 C329 480 329 480 329 480 C329 452 329 452 329 452 C329 448 326 446 323 446 C320 446 317 448 317 452 C317 480 317 480 317 480 C87 480 87 480 87 480 C87 452 87 452 87 452 C87 448 84 446 81 446 C78 446 76 448 76 452 C76 480 76 480 76 480 C20 480 20 480 20 480 C19 464 15 418 32 396 Z"/></g></svg>