<svg xmlns="http://www.w3.org/2000/svg" viewBox="0 0 32.901 64.000" fill="none" stroke="currentColor" stroke-width="0.6" stroke-linecap="round" stroke-linejoin="round"><g transform="translate(0.000,0.000) scale(0.000041,0.000041)"><rect x="0" y="0" width="806385" height="615553" rx="0"/></g><g transform="translate(1.360,31.031) scale(0.053707,0.053783)"><path d="M58 13 C55 8 52 5 48 3 C44 1 39 0 33 0 C26 0 20 2 15 6 C10 10 6 15 4 23 C1 30 0 40 0 52 C0 71 3 85 10 94 C16 101 23 104 33 104 C41 104 47 102 52 98 C57 94 61 89 63 81 C66 74 67 64 67 52 C67 42 66 34 64 28 C63 22 61 17 58 13 Z M48 86 C44 91 39 94 33 94 C27 94 23 91 19 86 C15 80 13 69 13 52 C13 35 15 24 19 17 C23 12 27 10 33 10 C39 10 44 13 48 18 C52 24 54 35 54 52 C54 69 52 80 48 86 Z M119 103 C107 103 107 103 107 103 C107 22 107 22 107 22 C107 12 107 0 107 0 C119 0 119 0 119 0 L119 103 Z M279 103 C266 103 266 103 266 103 C266 22 266 22 266 22 C266 12 266 0 266 0 C279 0 279 0 279 0 L279 103 Z M439 103 C426 103 426 103 426 103 C426 22 426 22 426 22 C426 12 426 0 426 0 C439 0 439 0 439 0 L439 103 Z M218 13 C215 8 212 5 207 3 C203 1 198 0 193 0 C185 0 179 2 174 6 C169 10 166 15 163 23 C161 30 159 40 159 52 C159 71 163 85 170 94 C175 101 183 104 193 104 C200 104 207 102 212 98 C216 94 220 89 223 81 C225 74 226 64 226 52 C226 42 226 34 224 28 C223 22 220 17 218 13 Z M207 86 C204 91 199 94 193 94 C187 94 182 91 178 86 C174 80 172 69 172 52 C172 35 175 24 179 17 C182 12 187 10 193 10 C199 10 204 13 207 18 C211 24 213 35 213 52 C213 69 211 80 207 86 Z M352 104 C360 104 366 102 371 98 C376 94 380 89 382 81 C385 74 386 64 386 52 C386 42 385 34 384 28 C382 22 380 17 377 13 C375 8 371 5 367 3 C363 1 358 0 352 0 C345 0 339 2 334 6 C329 10 325 15 323 23 C320 30 319 40 319 52 C319 71 322 85 329 94 C335 101 343 104 352 104 Z M338 17 C342 12 346 10 352 10 C358 10 363 13 367 18 C371 24 373 35 373 52 C373 69 371 80 367 86 C363 91 358 94 352 94 C347 94 342 91 338 86 C334 80 332 69 332 52 C332 35 334 24 338 17 Z M512 104 C520 104 526 102 531 98 C536 94 539 89 542 81 C544 74 545 64 545 52 C545 42 545 34 543 28 C542 22 540 17 537 13 C534 8 531 5 527 3 C522 1 518 0 512 0 C505 0 498 2 493 6 C488 10 485 15 482 23 C480 30 479 40 479 52 C479 71 482 85 489 94 C494 101 502 104 512 104 Z M498 17 C501 12 506 10 512 10 C518 10 523 13 527 18 C531 24 533 35 533 52 C533 69 531 80 527 86 C523 91 518 94 512 94 C506 94 501 91 497 86 C493 80 491 69 491 52 C491 35 494 24 498 17 Z M58 327 C55 323 52 320 48 318 C44 316 39 315 33 315 C26 315 20 317 15 321 C10 325 6 330 4 338 C1 345 0 355 0 367 C0 386 3 400 10 409 C16 416 23 419 33 419 C41 419 47 417 52 413 C57 409 61 404 63 396 C66 389 67 379 67 367 C67 357 66 349 64 343 C63 337 61 332 58 327 Z M48 401 C44 406 39 409 33 409 C27 409 23 406 19 401 C15 395 13 384 13 367 C13 350 15 339 19 332 C23 327 27 325 33 325 C39 325 44 328 48 333 C52 339 54 350 54 367 C54 384 52 395 48 401 Z M119 418 C107 418 107 418 107 418 C107 337 107 337 107 337 C107 327 107 315 107 315 C119 315 119 315 119 315 L119 418 Z M266 315 C279 315 279 315 279 315 C279 418 279 418 279 418 C266 418 266 418 266 418 C266 337 266 337 266 337 C266 327 266 315 266 315 Z M218 327 C215 323 212 320 207 318 C203 316 198 315 193 315 C185 315 179 317 174 321 C169 325 166 330 163 338 C161 345 159 355 159 367 C159 386 163 400 170 409 C175 416 183 419 193 419 C200 419 207 417 212 413 C216 409 220 404 223 396 C225 389 226 379 226 367 C226 357 226 349 224 343 C223 337 220 332 218 327 Z M207 401 C204 406 199 409 193 409 C187 409 182 406 178 401 C174 395 172 384 172 367 C172 350 175 339 179 332 C182 327 187 325 193 325 C199 325 204 328 207 333 C211 339 213 350 213 367 C213 384 211 395 207 401 Z M512 419 C520 419 526 417 531 413 C536 409 539 404 542 396 C544 389 545 379 545 367 C545 357 545 349 543 343 C542 337 540 332 537 327 C534 323 531 320 527 318 C522 316 518 315 512 315 C505 315 498 317 493 321 C488 325 485 330 482 338 C480 345 479 355 479 367 C479 386 482 400 489 409 C494 416 502 419 512 419 Z M498 332 C501 327 506 325 512 325 C518 325 523 328 527 333 C531 339 533 350 533 367 C533 384 531 395 527 401 C523 406 518 409 512 409 C506 409 501 406 497 401 C493 395 491 384 491 367 C491 350 494 339 498 332 Z M506 157 C518 157 518 157 518 157 C518 157 518 170 518 180 C518 261 518 261 518 261 C506 261 506 261 506 261 L506 157 Z M346 157 C359 157 359 157 359 157 C359 157 359 170 359 180 C359 261 359 261 359 261 C346 261 346 261 346 261 L346 157 Z M199 261 C187 261 187 261 187 261 C187 157 187 157 187 157 C199 157 199 157 199 157 C199 157 199 170 199 180 L199 261 Z M40 261 C27 261 27 261 27 261 C27 157 27 157 27 157 C40 157 40 157 40 157 C40 157 40 170 40 180 L40 261 Z M414 256 C418 260 425 262 432 262 C442 262 450 259 456 252 C462 243 466 229 466 210 C466 198 464 188 462 181 C459 173 456 168 451 164 C446 160 440 157 432 157 C427 157 422 159 418 161 C414 163 410 166 407 170 C405 175 403 180 401 186 C400 192 399 200 399 210 C399 222 400 232 402 239 C405 247 409 252 414 256 Z M418 176 C422 171 426 168 432 168 C438 168 443 170 446 175 C451 182 453 193 453 210 C453 227 451 238 447 244 C443 249 438 252 432 252 C426 252 422 249 418 244 C414 238 412 227 412 210 C412 193 414 182 418 176 Z M254 256 C259 260 265 262 273 262 C283 262 290 259 296 252 C303 243 306 229 306 210 C306 198 305 188 302 181 C300 173 296 168 291 164 C286 160 280 157 273 157 C267 157 262 159 258 161 C254 163 251 166 248 170 C245 175 243 180 241 186 C240 192 239 200 239 210 C239 222 240 232 243 239 C245 247 249 252 254 256 Z M258 176 C262 171 267 168 273 168 C279 168 283 170 287 175 C291 182 293 193 293 210 C293 227 291 238 287 244 C283 249 278 252 273 252 C267 252 262 249 258 244 C254 238 252 227 252 210 C252 193 254 182 258 176 Z M132 164 C127 160 121 157 113 157 C108 157 103 159 99 161 C94 163 91 166 88 170 C86 175 83 180 82 186 C80 192 80 200 80 210 C80 222 81 232 83 239 C86 247 89 252 94 256 C99 260 106 262 113 262 C123 262 131 259 136 252 C143 243 147 229 147 210 C147 198 145 188 143 181 C140 173 137 168 132 164 Z M128 244 C124 249 119 252 113 252 C107 252 102 249 98 244 C95 238 93 227 93 210 C93 193 95 182 98 176 C102 171 107 168 113 168 C119 168 124 170 127 175 C131 182 134 193 134 210 C134 227 132 238 128 244 Z M506 473 C518 473 518 473 518 473 C518 473 518 485 518 495 C518 509 518 509 518 509 C506 493 506 493 506 493 L506 473 Z M346 472 C359 472 359 472 359 472 C359 472 359 485 359 495 C359 576 359 576 359 576 C346 576 346 576 346 576 L346 472 Z M187 472 C199 472 199 472 199 472 C199 472 199 485 199 495 C199 576 199 576 199 576 C187 576 187 576 187 576 L187 472 Z M27 472 C40 472 40 472 40 472 C40 472 40 485 40 495 C40 576 40 576 40 576 C27 576 27 576 27 576 L27 472 Z M452 538 C461 556 461 556 461 556 C460 560 458 564 456 567 C450 574 442 577 432 577 C425 577 419 575 414 571 C409 567 405 562 403 554 C400 547 399 537 399 525 C399 515 399 507 401 501 C403 495 405 490 407 485 C410 481 414 478 418 476 C422 474 427 473 432 473 C437 473 442 473 446 475 C446 476 446 476 446 476 C434 483 434 483 434 483 C434 483 433 483 432 483 C426 483 422 486 418 491 C414 497 412 508 412 525 C412 542 414 553 418 559 C422 564 426 567 432 567 C438 567 443 564 447 559 C450 555 451 548 452 538 Z M291 479 C286 475 280 472 273 472 C267 472 262 474 258 476 C254 478 251 481 248 485 C245 490 243 495 241 501 C240 507 239 515 239 525 C239 537 240 547 243 554 C245 562 249 567 254 571 C259 575 265 577 273 577 C283 577 290 574 296 567 C303 558 306 544 306 525 C306 513 305 503 302 496 C300 488 296 483 291 479 Z M287 559 C283 564 278 567 273 567 C267 567 262 564 258 559 C254 553 252 542 252 525 C252 508 254 497 258 491 C262 486 267 483 273 483 C279 483 283 485 287 490 C291 497 293 508 293 525 C293 542 291 553 287 559 Z M132 479 C127 475 121 472 113 472 C108 472 103 474 99 476 C94 478 91 481 88 485 C86 490 83 495 82 501 C80 507 80 515 80 525 C80 537 81 547 83 554 C86 562 89 567 94 571 C99 575 106 577 113 577 C123 577 131 574 136 567 C143 558 147 544 147 525 C147 513 145 503 143 496 C140 488 137 483 132 479 Z M128 559 C124 564 119 567 113 567 C107 567 102 564 98 559 C95 553 93 542 93 525 C93 508 95 497 98 491 C102 486 107 483 113 483 C119 483 124 485 127 490 C131 497 134 508 134 525 C134 542 132 553 128 559 Z M362 321 C327 413 327 413 327 413 C339 413 339 413 339 413 C350 385 350 385 350 385 C388 385 388 385 388 385 C399 413 399 413 399 413 C413 413 413 413 413 413 C375 321 375 321 375 321 L362 321 Z M353 375 C363 348 363 348 363 348 C365 342 367 336 368 331 C370 336 372 342 375 350 C384 375 384 375 384 375 L353 375 Z M437 413 C425 413 425 413 425 413 C425 321 425 321 425 321 C437 321 437 321 437 321 L437 413 Z M561 564 C480 461 480 461 480 461 C478 458 474 458 471 459 C457 469 457 469 457 469 C437 439 437 439 437 439 C454 426 466 408 471 387 C476 363 472 339 459 319 C443 292 414 276 383 276 C365 276 349 281 334 290 C292 317 279 373 306 415 C323 442 351 458 383 458 C398 458 413 453 427 446 C446 476 446 476 446 476 C432 485 432 485 432 485 C429 487 428 490 429 493 C490 610 490 610 490 610 C491 611 492 613 494 613 C495 613 495 613 496 613 C497 613 498 613 499 612 C559 573 559 573 559 573 C561 572 562 571 562 569 C562 567 562 565 561 564 Z M317 409 C294 372 305 324 341 301 C354 293 368 289 383 289 C410 289 434 303 449 325 C460 343 463 364 459 384 C454 405 442 422 424 433 C412 441 397 445 383 445 C356 445 331 431 317 409 Z M498 598 C443 493 443 493 443 493 C474 473 474 473 474 473 C547 566 547 566 547 566 L498 598 Z"/></g></svg>