<svg xmlns="http://www.w3.org/2000/svg" viewBox="0 0 64.000 56.232" fill="none" stroke="currentColor" stroke-width="0.6" stroke-linecap="round" stroke-linejoin="round"><g transform="translate(0.000,0.000) scale(0.000160,0.000160)"><path d="M395953 340554 L382181 340554 L382181 316994 L389763 316994 C392394 316994 394521 314867 394521 312236 C394521 309605 392394 307478 389763 307478 L365159 307478 L365159 293164 L378312 293164 C380943 293164 383070 291036 383070 288405 C383070 285775 380943 283647 378312 283647 L365159 283647 L365159 270339 L378312 270339 C380943 270339 383070 268211 383070 265580 C383070 262950 380943 260822 378312 260822 L365159 260822 L365159 251460 C365159 248829 363031 246702 360400 246702 C357770 246702 355642 248829 355642 251460 L355642 260861 L247901 260861 L247901 251460 C247901 248829 245773 246702 243142 246702 C240512 246702 238384 248829 238384 251460 L238384 260861 L225231 260861 C222600 260861 220472 262989 220472 265619 C220472 268250 222600 270378 225231 270378 L238384 270378 L238384 283686 L225231 283686 C222600 283686 220472 285813 220472 288444 C220472 291075 222600 293202 225231 293202 L238384 293202 L238384 307516 L213780 307516 C211149 307516 209021 309644 209021 312275 C209021 314905 211149 317033 213780 317033 L221362 317033 L221362 340593 L190413 340593 C188518 338697 185500 338156 183140 339162 C182250 339510 181593 339935 180896 340593 L91531 340593 L91531 293783 C102557 299779 118380 301597 127780 301597 C152578 301597 173546 279507 173546 253317 C173546 238539 166234 224573 154280 216023 C155093 212929 155518 209911 155518 206894 C155518 188015 141166 172463 122829 170413 C122712 170413 122635 170335 122558 170335 C122480 170335 122403 170335 122364 170335 C122326 170335 122248 170296 122210 170296 C123099 167124 123564 163875 123564 160625 C123564 140353 107083 123873 86850 123873 C66579 123873 50099 140353 50099 160625 C50099 163217 50485 165809 51066 168362 C51220 169020 51298 169639 51453 170258 C51453 170258 51453 170258 51453 170258 C32767 171960 18105 187744 18105 206855 C18105 209834 18569 212696 19266 215521 C19304 215675 19304 215830 19343 215985 C7312 224612 0 238578 0 253356 C0 279507 20813 301636 45495 301636 C54315 301636 70641 299818 82015 293744 L82015 340593 L4758 340593 C2128 340554 0 342682 0 345313 C0 347943 2128 350071 4758 350071 L180896 350071 C180896 350071 180896 350071 180896 350110 C181554 350651 182250 351232 183140 351580 C183914 351928 184804 352044 185694 352044 C186583 352044 187396 351928 188169 351580 C189059 351232 189756 350690 190413 350110 C190413 350110 190413 350110 190413 350071 L395914 350071 C398545 350071 400673 347943 400673 345313 C400711 342682 398583 340554 395953 340554 Z M9517 253356 C9517 242407 14585 232040 23018 225231 C24372 227591 25920 229834 27777 231846 C28705 232852 29982 233394 31297 233394 C32458 233394 33618 232968 34508 232117 C36442 230337 36558 227320 34779 225386 C32419 222832 30601 219853 29363 216642 C29324 216565 29401 216488 29363 216410 C28164 213161 27545 209988 27545 206894 C27545 191883 39769 179659 54741 179659 C55012 179659 55283 179697 55553 179736 C58300 184185 61820 188169 66269 191187 C67082 191729 68010 191999 68900 191999 C70447 191999 71956 191264 72846 189872 C74316 187667 73736 184726 71531 183256 C67778 180742 64799 177415 62710 173546 C62633 173391 62672 173198 62594 173043 C60505 168981 59422 164803 59422 160586 C59422 145576 71647 133390 86618 133390 C101629 133390 113815 145615 113815 160586 C113815 164068 112925 167511 111455 170915 C107315 171728 103215 173198 99578 175403 C97334 176757 96599 179697 97953 181941 C98843 183411 100429 184223 102054 184223 C102905 184223 103756 183991 104530 183527 C107780 181554 111455 180394 115207 179891 C115285 179891 115362 179929 115401 179929 L116677 179775 C117064 179736 117490 179697 117915 179659 C118496 179659 119076 179659 119656 179697 C134164 180239 145847 192154 145847 206816 C145847 208248 145692 209679 145421 211149 C138690 208325 131301 207048 124144 207590 C121513 207783 119540 210066 119734 212696 C119927 215327 121977 217339 124840 217107 C132384 216526 140199 218461 146737 222523 C157298 229138 163875 240783 163875 253240 C163875 273859 146930 291964 127626 291964 C113853 291964 96096 288096 90332 280978 C90255 280900 90177 280861 90100 280784 C89945 280629 89791 280513 89636 280359 C88823 279585 87856 278966 86618 279198 C85922 279198 85264 279353 84684 279624 C84491 279701 84375 279856 84181 279972 C83794 280204 83407 280475 83098 280823 C83059 280861 82982 280900 82943 280939 C77256 287825 59383 291964 45340 291964 C26345 292080 9517 273975 9517 253356 Z M247901 270339 L355603 270339 L355603 283647 L247901 283647 L247901 270339 Z M247901 293164 L355603 293164 L355603 307478 L247901 307478 L247901 293164 Z M230879 316994 L372625 316994 L372625 340554 L230879 340554 L230879 316994 Z M178923 262524 C178923 258849 181941 255793 185655 255793 C189446 255793 192386 258810 192386 262524 C192386 266238 189485 269256 185655 269256 C181941 269256 178923 266238 178923 262524 Z M178923 317691 C178923 313977 181941 310959 185655 310959 C189446 310959 192386 313977 192386 317691 C192386 321366 189485 324422 185655 324422 C181941 324422 178923 321366 178923 317691 Z M178923 290107 C178923 286432 181941 283376 185655 283376 C189446 283376 192386 286394 192386 290107 C192386 293821 189485 296839 185655 296839 C181941 296839 178923 293821 178923 290107 Z M178923 234941 C178923 231227 181941 228210 185655 228210 C189446 228210 192386 231227 192386 234941 C192386 238655 189485 241672 185655 241672 C181941 241672 178923 238655 178923 234941 Z M179465 209950 C179117 209176 178923 208248 178923 207358 C178923 206468 179156 205578 179465 204805 C179775 204031 180355 203218 180935 202561 C181593 202019 182289 201439 183179 201091 C185539 200085 188556 200742 190452 202561 C190994 203218 191574 204031 191922 204805 C192270 205578 192386 206468 192386 207358 C192386 208248 192270 209137 191922 209950 C191613 210723 191032 211497 190452 212078 C189098 213432 187434 214089 185732 214089 C184842 214089 183953 213857 183179 213548 C182289 213199 181593 212774 180935 212078 C180239 211536 179813 210762 179465 209950 Z M291694 162559 C295407 162559 298425 165693 298193 169407 C298077 173121 295175 176022 291578 176022 C291461 176022 291345 176022 291345 176022 C287632 175906 284730 172772 284846 169059 C284846 165345 287980 162443 291694 162559 Z M279121 145499 C277341 142249 278463 138110 281713 136291 C284962 134512 289102 135750 290881 138999 C292661 142249 291461 146272 288328 148091 C287206 148671 286084 148980 284962 148980 C282602 148980 280359 147742 279121 145499 Z M258965 219737 C257069 216604 257959 212464 261093 210414 C261093 210414 261093 210414 261093 210530 C264343 208518 268366 209408 270416 212658 C272428 215791 271422 219815 268288 221826 C267167 222600 265929 222832 264691 222832 C262408 222832 260319 221826 258965 219737 Z M277999 192696 C279894 189446 283918 188324 287167 190104 C290417 191883 291539 196139 289643 199311 C288405 201555 286162 202677 283802 202677 C282680 202677 281558 202445 280552 201787 C277341 200007 276219 195829 277999 192696 Z M203683 218732 C204572 215018 208286 212890 211845 213780 C215443 214669 217687 218383 216797 221981 C215907 224999 213199 227010 210182 227010 C209602 227010 209176 227010 208596 226894 C205037 225888 202793 222291 203683 218732 Z M231382 223761 C231382 220047 234399 217145 238113 217145 C241827 217145 244845 220163 244845 223877 C244845 227591 241711 230608 238113 230608 C238075 230608 238036 230608 237997 230608 C234283 230608 231382 227436 231382 223761 Z M260745 126891 C259507 125653 258849 123989 258849 122171 C258849 121281 258965 120391 259313 119579 C259623 118805 260203 118031 260783 117335 C261441 116755 262137 116213 263027 115865 C265387 114859 268405 115401 270300 117335 C270997 117993 271422 118805 271770 119579 C272118 120353 272312 121281 272312 122171 C272312 123950 271538 125653 270300 126891 C269062 128245 267399 128902 265580 128902 C263762 128902 262099 128245 260745 126891 Z M259739 96754 C258501 93156 260396 89481 263994 88243 C267476 87005 271267 88939 272505 92499 C273627 95980 271732 99772 268250 101010 C267476 101242 266780 101319 266122 101319 C263337 101319 260629 99539 259739 96754 Z M243491 69287 C245386 66153 249526 65264 252659 67275 C255793 69287 256799 73465 254787 76599 C253433 78610 251305 79616 249061 79616 C247823 79616 246586 79268 245464 78610 C242369 76560 241479 72420 243491 69287 Z M226894 62207 C227591 62865 228016 63561 228364 64335 C228713 65225 228945 66115 228945 66927 C228945 68823 228248 70525 226933 71763 C226391 72304 225579 72885 224805 73233 C224032 73581 223103 73774 222213 73774 C221323 73774 220434 73542 219660 73233 C218886 72885 218074 72343 217532 71763 C216875 71105 216410 70409 216062 69519 C215714 68745 215521 67856 215521 66966 C215521 66076 215753 65264 216062 64374 C216410 63600 216836 62826 217532 62246 C218074 61550 218886 61124 219660 60776 C222059 59731 225076 60312 226894 62207 Z M138806 37990 C139580 34392 143061 32032 146775 32845 C150373 33618 152694 37216 151921 40814 C151224 43947 148439 46191 145421 46191 C144880 46191 144415 46075 143951 45959 C140353 45301 137994 41704 138806 37990 Z M207513 21316 C204727 18840 204147 14701 206623 11799 C208983 9014 213122 8550 216023 10909 C218809 13269 219273 17409 216913 20310 C215559 21974 213664 22786 211768 22786 C210182 22747 208712 22322 207513 21316 Z M154474 20194 C152230 17254 152694 12999 155596 10677 C158381 8318 162675 8898 164996 11683 C167356 14623 166892 18879 163991 21200 C162753 22206 161205 22670 159735 22670 C157840 22631 155828 21742 154474 20194 Z M179040 6731 C179040 3018 182057 0 185771 0 L185887 0 C189601 0 192502 3018 192502 6847 C192502 10561 189485 13463 185771 13463 C182057 13463 179040 10561 179040 6731 Z M219505 41046 C218732 37332 221091 33773 224767 33077 C228364 32303 231924 34663 232736 38222 C233394 41820 231150 45418 227475 46191 C227049 46307 226585 46307 226121 46307 C222987 46307 220163 44180 219505 41046 Z M153932 62207 C154590 62749 155054 63561 155402 64335 C155750 65225 155944 66115 155944 66927 C155944 67817 155712 68707 155402 69480 C155054 70370 154629 71066 153932 71724 C152694 72962 151031 73620 149213 73620 C148323 73620 147510 73504 146621 73156 C145847 72807 145073 72266 144493 71685 C143796 71028 143371 70331 142945 69442 C142597 68668 142481 67778 142481 66888 C142481 66115 142713 65186 143023 64296 C143332 63523 143796 62749 144493 62169 C145034 61472 145847 61047 146621 60699 C148323 60041 150102 60041 151766 60699 C152578 61085 153352 61550 153932 62207 Z M100468 88437 C101938 84955 105961 83485 109327 84955 C112809 86425 114240 90448 112809 93814 C111687 96290 109211 97837 106658 97837 C105768 97837 104878 97605 103950 97296 C100545 95748 98998 91802 100468 88437 Z M118031 75322 C116252 72072 117258 67933 120507 66115 C123757 64219 127896 65341 129676 68591 C131572 71840 130450 75864 127200 77798 C126194 78339 125072 78688 123834 78688 C121629 78688 119269 77450 118031 75322 Z M97412 121629 C96174 120391 95516 118728 95516 116910 C95516 116020 95632 115130 95980 114318 C96329 113428 96754 112770 97450 112074 C98147 111532 98804 110952 99694 110604 C101358 109946 103176 109946 104723 110604 C105613 110952 106271 111493 106967 112074 C107548 112770 108089 113428 108437 114318 C108747 115091 108902 116020 108902 116910 C108902 118689 108205 120391 106967 121629 C106310 122287 105613 122751 104723 123099 C103950 123448 103021 123641 102131 123641 C100313 123641 98650 122867 97412 121629 Z"/></g></svg>