<svg xmlns="http://www.w3.org/2000/svg" viewBox="0 0 64.000 63.369" fill="none" stroke="currentColor" stroke-width="0.6" stroke-linecap="round" stroke-linejoin="round"><g transform="translate(0.000,0.000) scale(0.000160,0.000160)"><path d="M400985 218594 C400985 193654 380708 173377 355769 173377 C330829 173377 310552 193654 310552 218594 C310552 241961 328431 261012 351159 263357 C352651 317286 344018 355734 325980 374466 C317560 383205 307142 387655 295019 387655 C221586 387655 214791 218754 214178 189684 L267654 189418 C268907 189418 270079 188911 270932 188032 C271811 187153 272291 185980 272291 184728 L271358 4636 C271358 3384 270852 2212 269972 1359 C269146 480 267974 0 266748 0 C266748 0 266722 0 266722 0 L151270 586 C148685 586 146634 2691 146634 5249 L147566 185341 C147566 187899 149671 189977 152229 189977 C152229 189977 152229 189977 152256 189977 L204613 189711 C198351 318512 181165 328663 157611 328663 C131580 328663 125531 298475 125025 273162 L124945 267780 C124305 227600 123000 144015 62490 144015 C45890 144015 33473 149317 25587 159815 C12238 177587 16234 204765 18579 215769 L12557 217048 C11358 217315 10293 218034 9626 219073 C8960 220112 8720 221391 8987 222590 L11944 236286 C1580 247796 -2817 268020 1873 290108 C4937 304496 11465 317313 20231 326185 C24148 330155 28304 333113 32594 335111 L35392 347901 C35871 350059 37790 351551 39948 351551 C40268 351551 40588 351524 40907 351444 L63475 346648 C65980 346115 67579 343664 67073 341160 L64674 329463 C68405 325679 71522 320803 73760 314835 C78157 303137 78903 288776 75839 274388 C70989 251633 58120 234421 43385 228639 L40694 215876 C40428 214677 39708 213611 38669 212945 C37630 212279 36404 212039 35179 212305 L27718 213878 C25667 204232 22070 180065 33074 165491 C39122 157471 49034 153421 62543 153421 C113887 153421 115113 230824 115673 268020 L115779 273429 C116872 329649 142477 338042 157665 338042 C185082 338042 200989 323974 209329 251527 C217003 313689 237945 397034 295098 397034 C309833 397034 322516 391651 332774 380994 C352864 360157 362137 320510 360565 263410 C383186 260959 400985 241934 400985 218594 Z M155959 9885 L262112 9326 L262992 180119 L156839 180652 L155959 9885 Z M43465 341373 L42666 337722 C43439 337802 44238 337989 45011 337989 C46876 337989 48741 337802 50553 337403 C52578 336976 54470 336124 56335 335244 L57001 338468 L43465 341373 Z M66699 276280 C69391 288962 68804 301459 65021 311504 C61504 320830 55695 326798 48634 328290 C41600 329809 33820 326718 26839 319631 C19298 311984 13650 300819 10959 288163 C5656 263170 13943 239350 29024 236126 C44185 232929 61397 251313 66699 276280 Z M33420 226614 C31315 226560 29184 226587 27079 227040 C27079 227040 27079 227040 27079 227040 C24574 227573 22229 228479 20018 229651 L19059 225175 L32541 222324 L33420 226614 Z M355795 254511 C335998 254511 319878 238391 319878 218594 C319878 198797 335998 182677 355795 182677 C375592 182677 391686 198797 391686 218594 C391686 238391 375592 254511 355795 254511 Z M374793 196159 C376765 197811 377004 200768 375326 202713 L359339 221605 C358406 222697 357101 223256 355795 223256 C354729 223256 353664 222883 352784 222164 C350813 220512 350573 217555 352252 215609 L368238 196718 C369917 194720 372821 194507 374793 196159 Z M355582 251660 C347109 251660 347136 238524 355582 238524 C364055 238524 364055 251660 355582 251660 Z M355582 185901 C364055 185901 364028 199036 355582 199036 C347136 199036 347136 185901 355582 185901 Z M328218 225202 C319745 225202 319772 212066 328218 212066 C336664 212039 336664 225202 328218 225202 Z M383293 225202 C374820 225202 374846 212066 383293 212066 C391766 212039 391739 225202 383293 225202 Z M181885 19238 C182205 20010 182418 20889 182418 21769 C182418 23527 181752 25153 180446 26378 C179913 27018 179140 27577 178368 27897 C177595 28217 176716 28323 175836 28323 C174078 28323 172453 27684 171227 26352 C170587 25819 170134 25046 169815 24273 C169388 23527 169282 22648 169282 21769 C169282 20889 169388 20117 169815 19238 C170134 18491 170587 17719 171227 17159 C172985 15294 175943 14628 178341 15747 C179114 16067 179860 16493 180419 17159 C181112 17719 181538 18465 181885 19238 Z M182418 109670 C182418 113294 179460 116251 175836 116251 C172213 116251 169282 113294 169282 109670 C169282 106073 172239 103115 175836 103115 C179460 103115 182418 106073 182418 109670 Z M182418 138899 C182418 142496 179460 145454 175836 145454 C172213 145454 169282 142496 169282 138899 C169282 135275 172239 132318 175836 132318 C179460 132345 182418 135302 182418 138899 Z M182418 80334 C182418 83958 179460 86915 175836 86915 C172213 86915 169282 83958 169282 80334 C169282 76710 172239 73779 175836 73779 C179460 73753 182418 76710 182418 80334 Z M182418 51105 C182418 54728 179460 57659 175836 57659 C172213 57659 169282 54702 169282 51105 C169282 47374 172239 44550 175836 44550 C179460 44523 182418 47374 182418 51105 Z M181885 165730 C182205 166503 182418 167382 182418 168262 C182418 170020 181752 171646 180446 172871 C179913 173511 179140 173964 178368 174283 C177595 174603 176716 174816 175836 174816 C174078 174816 172453 174177 171227 172845 C169921 171646 169255 169994 169255 168235 C169255 167356 169362 166476 169788 165704 C170108 164958 170561 164185 171200 163626 C172959 161760 175916 161094 178314 162080 C179087 162506 179833 162959 180393 163626 C181112 164185 181538 164958 181885 165730 Z"/></g></svg>